<?xml version="1.0" encoding="utf-8"?><svg xmlns="http://www.w3.org/2000/svg" version="1.1" xmlns:xlink="http://www.w3.org/1999/xlink" viewBox="0 0 216 216"><rect width="216" height="216" fill="#FFFFFF"></rect><path shape-rendering="geometricPrecision" d="M 8 8 v 56 h 56 v -56 h -56 z M 16 16 v 40 h 40 v -40 h -40 z M 24 24 v 24 h 24 v -24 h -24 z M 208 8 v 56 h -56 v -56 h 56 z M 200 16 v 40 h -40 v -40 h 40 z M 192 24 v 24 h -24 v -24 h 24 z M 8 208 v -56 h 56 v 56 h -56 z M 16 200 v -40 h 40 v 40 h -40 z M 24 192 v -24 h 24 v 24 h -24 z" fill-rule="evenodd" fill="#000000"/><path shape-rendering="geometricPrecision" d="M 8 96 v 8 h 8 v -8 h -8 z M 8 120 v 8 h 8 v -8 h -8 z M 16 80 v 8 h 8 v -8 h -8 z M 16 104 v 8 h 8 v -8 h -8 z M 16 112 v 8 h 8 v -8 h -8 z M 16 128 v 8 h 8 v -8 h -8 z M 24 72 v 8 h 8 v -8 h -8 z M 24 88 v 8 h 8 v -8 h -8 z M 24 96 v 8 h 8 v -8 h -8 z M 32 72 v 8 h 8 v -8 h -8 z M 32 80 v 8 h 8 v -8 h -8 z M 32 88 v 8 h 8 v -8 h -8 z M 32 104 v 8 h 8 v -8 h -8 z M 32 112 v 8 h 8 v -8 h -8 z M 32 136 v 8 h 8 v -8 h -8 z M 40 72 v 8 h 8 v -8 h -8 z M 40 88 v 8 h 8 v -8 h -8 z M 40 96 v 8 h 8 v -8 h -8 z M 40 104 v 8 h 8 v -8 h -8 z M 40 120 v 8 h 8 v -8 h -8 z M 40 136 v 8 h 8 v -8 h -8 z M 48 72 v 8 h 8 v -8 h -8 z M 48 80 v 8 h 8 v -8 h -8 z M 48 96 v 8 h 8 v -8 h -8 z M 48 120 v 8 h 8 v -8 h -8 z M 48 128 v 8 h 8 v -8 h -8 z M 56 72 v 8 h 8 v -8 h -8 z M 56 88 v 8 h 8 v -8 h -8 z M 56 104 v 8 h 8 v -8 h -8 z M 56 120 v 8 h 8 v -8 h -8 z M 56 136 v 8 h 8 v -8 h -8 z M 64 72 v 8 h 8 v -8 h -8 z M 64 80 v 8 h 8 v -8 h -8 z M 64 96 v 8 h 8 v -8 h -8 z M 64 104 v 8 h 8 v -8 h -8 z M 64 120 v 8 h 8 v -8 h -8 z M 72 8 v 8 h 8 v -8 h -8 z M 72 24 v 8 h 8 v -8 h -8 z M 72 32 v 8 h 8 v -8 h -8 z M 72 40 v 8 h 8 v -8 h -8 z M 72 48 v 8 h 8 v -8 h -8 z M 72 56 v 8 h 8 v -8 h -8 z M 72 96 v 8 h 8 v -8 h -8 z M 72 104 v 8 h 8 v -8 h -8 z M 72 112 v 8 h 8 v -8 h -8 z M 72 152 v 8 h 8 v -8 h -8 z M 72 160 v 8 h 8 v -8 h -8 z M 72 168 v 8 h 8 v -8 h -8 z M 72 176 v 8 h 8 v -8 h -8 z M 72 184 v 8 h 8 v -8 h -8 z M 80 32 v 8 h 8 v -8 h -8 z M 80 40 v 8 h 8 v -8 h -8 z M 80 64 v 8 h 8 v -8 h -8 z M 80 72 v 8 h 8 v -8 h -8 z M 80 80 v 8 h 8 v -8 h -8 z M 80 88 v 8 h 8 v -8 h -8 z M 80 104 v 8 h 8 v -8 h -8 z M 80 112 v 8 h 8 v -8 h -8 z M 80 136 v 8 h 8 v -8 h -8 z M 80 144 v 8 h 8 v -8 h -8 z M 80 160 v 8 h 8 v -8 h -8 z M 80 192 v 8 h 8 v -8 h -8 z M 88 8 v 8 h 8 v -8 h -8 z M 88 16 v 8 h 8 v -8 h -8 z M 88 24 v 8 h 8 v -8 h -8 z M 88 40 v 8 h 8 v -8 h -8 z M 88 48 v 8 h 8 v -8 h -8 z M 88 56 v 8 h 8 v -8 h -8 z M 88 88 v 8 h 8 v -8 h -8 z M 88 120 v 8 h 8 v -8 h -8 z M 88 128 v 8 h 8 v -8 h -8 z M 88 136 v 8 h 8 v -8 h -8 z M 88 152 v 8 h 8 v -8 h -8 z M 88 160 v 8 h 8 v -8 h -8 z M 88 168 v 8 h 8 v -8 h -8 z M 88 176 v 8 h 8 v -8 h -8 z M 88 192 v 8 h 8 v -8 h -8 z M 88 200 v 8 h 8 v -8 h -8 z M 96 16 v 8 h 8 v -8 h -8 z M 96 32 v 8 h 8 v -8 h -8 z M 96 104 v 8 h 8 v -8 h -8 z M 96 120 v 8 h 8 v -8 h -8 z M 96 136 v 8 h 8 v -8 h -8 z M 96 160 v 8 h 8 v -8 h -8 z M 96 200 v 8 h 8 v -8 h -8 z M 104 24 v 8 h 8 v -8 h -8 z M 104 56 v 8 h 8 v -8 h -8 z M 104 72 v 8 h 8 v -8 h -8 z M 104 88 v 8 h 8 v -8 h -8 z M 104 112 v 8 h 8 v -8 h -8 z M 104 120 v 8 h 8 v -8 h -8 z M 104 144 v 8 h 8 v -8 h -8 z M 104 152 v 8 h 8 v -8 h -8 z M 104 160 v 8 h 8 v -8 h -8 z M 104 168 v 8 h 8 v -8 h -8 z M 104 184 v 8 h 8 v -8 h -8 z M 104 192 v 8 h 8 v -8 h -8 z M 104 200 v 8 h 8 v -8 h -8 z M 112 8 v 8 h 8 v -8 h -8 z M 112 40 v 8 h 8 v -8 h -8 z M 112 48 v 8 h 8 v -8 h -8 z M 112 72 v 8 h 8 v -8 h -8 z M 112 80 v 8 h 8 v -8 h -8 z M 112 88 v 8 h 8 v -8 h -8 z M 112 104 v 8 h 8 v -8 h -8 z M 112 112 v 8 h 8 v -8 h -8 z M 112 160 v 8 h 8 v -8 h -8 z M 112 176 v 8 h 8 v -8 h -8 z M 112 192 v 8 h 8 v -8 h -8 z M 120 8 v 8 h 8 v -8 h -8 z M 120 24 v 8 h 8 v -8 h -8 z M 120 56 v 8 h 8 v -8 h -8 z M 120 72 v 8 h 8 v -8 h -8 z M 120 80 v 8 h 8 v -8 h -8 z M 120 88 v 8 h 8 v -8 h -8 z M 120 112 v 8 h 8 v -8 h -8 z M 120 128 v 8 h 8 v -8 h -8 z M 120 136 v 8 h 8 v -8 h -8 z M 120 144 v 8 h 8 v -8 h -8 z M 120 160 v 8 h 8 v -8 h -8 z M 120 168 v 8 h 8 v -8 h -8 z M 120 176 v 8 h 8 v -8 h -8 z M 120 192 v 8 h 8 v -8 h -8 z M 120 200 v 8 h 8 v -8 h -8 z M 128 8 v 8 h 8 v -8 h -8 z M 128 24 v 8 h 8 v -8 h -8 z M 128 32 v 8 h 8 v -8 h -8 z M 128 40 v 8 h 8 v -8 h -8 z M 128 48 v 8 h 8 v -8 h -8 z M 128 72 v 8 h 8 v -8 h -8 z M 128 80 v 8 h 8 v -8 h -8 z M 128 88 v 8 h 8 v -8 h -8 z M 128 104 v 8 h 8 v -8 h -8 z M 128 120 v 8 h 8 v -8 h -8 z M 128 128 v 8 h 8 v -8 h -8 z M 128 152 v 8 h 8 v -8 h -8 z M 128 160 v 8 h 8 v -8 h -8 z M 128 168 v 8 h 8 v -8 h -8 z M 128 200 v 8 h 8 v -8 h -8 z M 136 8 v 8 h 8 v -8 h -8 z M 136 24 v 8 h 8 v -8 h -8 z M 136 40 v 8 h 8 v -8 h -8 z M 136 56 v 8 h 8 v -8 h -8 z M 136 64 v 8 h 8 v -8 h -8 z M 136 80 v 8 h 8 v -8 h -8 z M 136 88 v 8 h 8 v -8 h -8 z M 136 104 v 8 h 8 v -8 h -8 z M 136 112 v 8 h 8 v -8 h -8 z M 136 120 v 8 h 8 v -8 h -8 z M 136 136 v 8 h 8 v -8 h -8 z M 136 144 v 8 h 8 v -8 h -8 z M 136 152 v 8 h 8 v -8 h -8 z M 136 160 v 8 h 8 v -8 h -8 z M 136 168 v 8 h 8 v -8 h -8 z M 136 184 v 8 h 8 v -8 h -8 z M 144 72 v 8 h 8 v -8 h -8 z M 144 120 v 8 h 8 v -8 h -8 z M 144 128 v 8 h 8 v -8 h -8 z M 144 136 v 8 h 8 v -8 h -8 z M 144 168 v 8 h 8 v -8 h -8 z M 144 176 v 8 h 8 v -8 h -8 z M 152 80 v 8 h 8 v -8 h -8 z M 152 96 v 8 h 8 v -8 h -8 z M 152 104 v 8 h 8 v -8 h -8 z M 152 120 v 8 h 8 v -8 h -8 z M 152 136 v 8 h 8 v -8 h -8 z M 152 152 v 8 h 8 v -8 h -8 z M 152 168 v 8 h 8 v -8 h -8 z M 152 184 v 8 h 8 v -8 h -8 z M 152 192 v 8 h 8 v -8 h -8 z M 152 200 v 8 h 8 v -8 h -8 z M 160 72 v 8 h 8 v -8 h -8 z M 160 80 v 8 h 8 v -8 h -8 z M 160 96 v 8 h 8 v -8 h -8 z M 160 136 v 8 h 8 v -8 h -8 z M 160 168 v 8 h 8 v -8 h -8 z M 160 176 v 8 h 8 v -8 h -8 z M 168 72 v 8 h 8 v -8 h -8 z M 168 80 v 8 h 8 v -8 h -8 z M 168 96 v 8 h 8 v -8 h -8 z M 168 128 v 8 h 8 v -8 h -8 z M 168 136 v 8 h 8 v -8 h -8 z M 168 144 v 8 h 8 v -8 h -8 z M 168 152 v 8 h 8 v -8 h -8 z M 168 160 v 8 h 8 v -8 h -8 z M 168 168 v 8 h 8 v -8 h -8 z M 168 184 v 8 h 8 v -8 h -8 z M 168 192 v 8 h 8 v -8 h -8 z M 168 200 v 8 h 8 v -8 h -8 z M 176 72 v 8 h 8 v -8 h -8 z M 176 88 v 8 h 8 v -8 h -8 z M 176 104 v 8 h 8 v -8 h -8 z M 176 112 v 8 h 8 v -8 h -8 z M 176 128 v 8 h 8 v -8 h -8 z M 176 152 v 8 h 8 v -8 h -8 z M 176 168 v 8 h 8 v -8 h -8 z M 176 176 v 8 h 8 v -8 h -8 z M 176 184 v 8 h 8 v -8 h -8 z M 176 192 v 8 h 8 v -8 h -8 z M 176 200 v 8 h 8 v -8 h -8 z M 184 72 v 8 h 8 v -8 h -8 z M 184 80 v 8 h 8 v -8 h -8 z M 184 112 v 8 h 8 v -8 h -8 z M 184 120 v 8 h 8 v -8 h -8 z M 184 136 v 8 h 8 v -8 h -8 z M 184 176 v 8 h 8 v -8 h -8 z M 184 184 v 8 h 8 v -8 h -8 z M 184 200 v 8 h 8 v -8 h -8 z M 192 104 v 8 h 8 v -8 h -8 z M 192 112 v 8 h 8 v -8 h -8 z M 192 128 v 8 h 8 v -8 h -8 z M 192 136 v 8 h 8 v -8 h -8 z M 192 144 v 8 h 8 v -8 h -8 z M 192 160 v 8 h 8 v -8 h -8 z M 192 168 v 8 h 8 v -8 h -8 z M 192 176 v 8 h 8 v -8 h -8 z M 192 200 v 8 h 8 v -8 h -8 z M 200 72 v 8 h 8 v -8 h -8 z M 200 88 v 8 h 8 v -8 h -8 z M 200 104 v 8 h 8 v -8 h -8 z M 200 120 v 8 h 8 v -8 h -8 z M 200 160 v 8 h 8 v -8 h -8 z M 200 168 v 8 h 8 v -8 h -8 z M 200 176 v 8 h 8 v -8 h -8 z M 200 184 v 8 h 8 v -8 h -8 z M 200 192 v 8 h 8 v -8 h -8 z M 200 200 v 8 h 8 v -8 h -8 z" fill="#000000"/></svg>